<svg xmlns="http://www.w3.org/2000/svg" xmlns:xlink="http://www.w3.org/1999/xlink" version="1.1" id="Layer_1" x="0px" y="0px" viewBox="0 0 100 100" enable-background="new 0 0 100 100" xml:space="preserve" height="100px" width="100px">
<path d="M95,66.249c0,0.252-0.022,0.52-0.044,0.811c-0.022,0.29-0.099,0.591-0.153,0.92c-0.066,0.329-0.192,0.652-0.296,1.008  c-0.137,0.34-0.29,0.696-0.471,1.051c-0.203,0.345-0.4,0.717-0.668,1.057c-0.493,0.706-1.156,1.353-1.917,1.939  c-0.197,0.137-0.394,0.274-0.597,0.416c-0.203,0.131-0.427,0.241-0.641,0.361c-0.433,0.252-0.909,0.422-1.386,0.597  c-0.969,0.329-2.01,0.471-3.045,0.504l-0.739-0.044c-0.197-0.005-0.482-0.044-0.761-0.088c-0.57-0.066-1.051-0.23-1.544-0.372  c-0.476-0.175-0.953-0.34-1.386-0.597c-0.214-0.12-0.438-0.225-0.641-0.361c-0.208-0.131-0.405-0.274-0.602-0.411  c-0.756-0.586-1.418-1.232-1.917-1.944c-0.263-0.34-0.466-0.712-0.663-1.057c-0.186-0.356-0.34-0.712-0.476-1.051  c-0.071-0.246-0.153-0.476-0.219-0.706c-0.06,0.23-0.142,0.46-0.219,0.706c-0.131,0.34-0.29,0.696-0.471,1.051  c-0.203,0.345-0.4,0.717-0.668,1.057c-0.126,0.181-0.268,0.361-0.416,0.537c-0.427,0.498-0.936,0.969-1.501,1.402  c-0.197,0.137-0.394,0.274-0.591,0.416c-0.208,0.131-0.427,0.241-0.646,0.361c-0.433,0.252-0.909,0.422-1.386,0.597  c-0.969,0.329-2.01,0.471-3.045,0.504l-0.739-0.044c-0.192-0.005-0.482-0.044-0.761-0.088c-0.57-0.066-1.052-0.23-1.539-0.372  c-0.476-0.175-0.958-0.34-1.391-0.597c-0.214-0.12-0.438-0.225-0.641-0.361c-0.208-0.131-0.4-0.274-0.597-0.411  c-0.761-0.586-1.424-1.232-1.917-1.944c-0.268-0.34-0.465-0.712-0.668-1.057c-0.181-0.356-0.334-0.712-0.471-1.051  c-0.077-0.246-0.159-0.476-0.219-0.706c-0.066,0.23-0.148,0.46-0.219,0.706c-0.137,0.34-0.29,0.696-0.476,1.051  c-0.197,0.345-0.4,0.717-0.663,1.057c-0.498,0.706-1.161,1.353-1.917,1.939c-0.197,0.137-0.4,0.274-0.597,0.416  c-0.208,0.131-0.427,0.241-0.646,0.361c-0.427,0.252-0.909,0.422-1.386,0.597c-0.969,0.329-2.004,0.471-3.039,0.504l-0.739-0.044  c-0.197-0.005-0.487-0.044-0.761-0.088c-0.575-0.066-1.057-0.23-1.544-0.372c-0.476-0.175-0.958-0.34-1.386-0.597  c-0.219-0.12-0.438-0.225-0.646-0.361c-0.203-0.131-0.4-0.274-0.597-0.411c-0.761-0.586-1.424-1.232-1.917-1.944  c-0.268-0.34-0.465-0.712-0.668-1.057c-0.181-0.356-0.334-0.712-0.471-1.051c-0.071-0.246-0.153-0.476-0.219-0.706  c-0.066,0.23-0.148,0.46-0.219,0.706c-0.137,0.34-0.29,0.696-0.471,1.051c-0.203,0.345-0.4,0.717-0.668,1.057  c-0.493,0.706-1.156,1.353-1.917,1.939c-0.197,0.137-0.394,0.274-0.597,0.416c-0.203,0.131-0.427,0.241-0.641,0.361  c-0.433,0.252-0.909,0.422-1.386,0.597c-0.969,0.329-2.01,0.471-3.045,0.504l-0.739-0.044c-0.197-0.005-0.482-0.044-0.761-0.088  c-0.57-0.066-1.051-0.23-1.544-0.372c-0.476-0.175-0.953-0.34-1.386-0.597c-0.214-0.12-0.438-0.225-0.641-0.361  c-0.208-0.131-0.405-0.274-0.602-0.411c-0.756-0.586-1.418-1.232-1.917-1.944c-0.263-0.34-0.466-0.712-0.663-1.057  c-0.186-0.356-0.34-0.712-0.476-1.051c-0.011-0.033-0.016-0.066-0.027-0.093c-0.066-0.214-0.137-0.411-0.192-0.613  c-0.06,0.23-0.142,0.46-0.219,0.706c-0.027,0.077-0.06,0.153-0.099,0.23c-0.104,0.268-0.23,0.542-0.372,0.821  c-0.203,0.345-0.4,0.717-0.668,1.057c-0.493,0.706-1.156,1.353-1.917,1.939c-0.197,0.137-0.394,0.274-0.591,0.416  c-0.208,0.131-0.427,0.241-0.646,0.361c-0.433,0.252-0.909,0.422-1.386,0.597c-0.969,0.329-2.01,0.471-3.045,0.504l-0.739-0.044  c-0.192-0.005-0.482-0.044-0.761-0.088c-0.57-0.066-1.052-0.23-1.539-0.372c-0.476-0.175-0.958-0.34-1.391-0.597  c-0.214-0.12-0.438-0.225-0.641-0.361c-0.208-0.131-0.4-0.274-0.597-0.411c-0.761-0.586-1.424-1.232-1.917-1.944  c-0.268-0.34-0.465-0.712-0.668-1.057c-0.181-0.356-0.334-0.712-0.471-1.051c-0.11-0.356-0.23-0.679-0.296-1.008  c-0.06-0.329-0.131-0.624-0.159-0.92C5.027,66.769,5.005,66.501,5,66.249c0.011-0.246,0.033-0.476,0.044-0.679  c0.011-0.405,0.126-0.723,0.159-0.931c0.049-0.203,0.077-0.318,0.077-0.318s0.038,0.11,0.11,0.312  c0.077,0.203,0.148,0.498,0.307,0.849c0.071,0.175,0.153,0.367,0.241,0.575c0.11,0.203,0.214,0.416,0.329,0.641  c0.12,0.225,0.268,0.449,0.411,0.685c0.148,0.235,0.329,0.465,0.498,0.706c0.383,0.466,0.8,0.942,1.309,1.358  c0.482,0.444,1.062,0.811,1.659,1.15c0.608,0.334,1.281,0.564,1.961,0.761c0.345,0.077,0.701,0.153,1.002,0.186l0.235,0.038  c0.071,0.016,0.208,0.011,0.307,0.016l0.575,0.027c0.723-0.011,1.435-0.099,2.125-0.263c0.679-0.197,1.347-0.433,1.961-0.767  c0.597-0.34,1.183-0.701,1.665-1.145c0.509-0.422,0.926-0.898,1.303-1.358c0.17-0.246,0.356-0.476,0.504-0.706  c0.137-0.241,0.29-0.466,0.411-0.69c0.115-0.225,0.214-0.438,0.329-0.641c0.082-0.203,0.164-0.394,0.235-0.564  c0.153-0.345,0.23-0.663,0.307-0.86c0.055-0.153,0.088-0.252,0.104-0.29c0.005-0.016,0.005-0.022,0.005-0.022s0,0.005,0.005,0.022  c0.016,0.038,0.049,0.137,0.104,0.29c0.071,0.203,0.148,0.498,0.301,0.849c0.077,0.175,0.153,0.367,0.241,0.575  c0.115,0.203,0.214,0.416,0.329,0.641c0.12,0.225,0.274,0.449,0.411,0.685c0.099,0.159,0.219,0.318,0.334,0.476  c0.06,0.077,0.115,0.153,0.17,0.23c0.378,0.466,0.794,0.942,1.303,1.358c0.482,0.444,1.068,0.811,1.665,1.15  c0.608,0.334,1.276,0.564,1.955,0.761c0.351,0.077,0.706,0.153,1.008,0.186l0.235,0.038c0.066,0.016,0.208,0.011,0.307,0.016  l0.575,0.027c0.717-0.011,1.435-0.099,2.125-0.263c0.679-0.197,1.347-0.433,1.955-0.767c0.602-0.34,1.183-0.701,1.665-1.145  c0.509-0.422,0.926-0.898,1.309-1.358c0.17-0.246,0.35-0.476,0.498-0.706c0.142-0.241,0.29-0.466,0.411-0.69  c0.115-0.225,0.219-0.438,0.329-0.641c0.088-0.203,0.17-0.394,0.241-0.564c0.153-0.345,0.23-0.663,0.301-0.86  c0.055-0.153,0.088-0.252,0.104-0.29c0.005-0.016,0.005-0.022,0.005-0.022s0,0.005,0.005,0.022c0.016,0.038,0.049,0.137,0.104,0.29  c0.077,0.203,0.153,0.498,0.307,0.849c0.071,0.175,0.153,0.367,0.241,0.575c0.11,0.203,0.214,0.416,0.329,0.641  c0.12,0.225,0.268,0.449,0.411,0.685c0.148,0.235,0.334,0.465,0.504,0.706c0.378,0.466,0.794,0.942,1.303,1.358  c0.482,0.444,1.068,0.811,1.665,1.15c0.608,0.334,1.276,0.564,1.955,0.761c0.351,0.077,0.706,0.153,1.008,0.186l0.23,0.038  c0.071,0.016,0.208,0.011,0.312,0.016l0.575,0.027c0.717-0.011,1.429-0.099,2.125-0.263c0.679-0.197,1.347-0.433,1.955-0.767  c0.597-0.34,1.183-0.701,1.665-1.145c0.509-0.422,0.926-0.898,1.303-1.358c0.17-0.246,0.356-0.476,0.504-0.706  c0.142-0.241,0.29-0.466,0.411-0.69c0.115-0.225,0.219-0.438,0.329-0.641c0.088-0.203,0.164-0.394,0.235-0.564  c0.159-0.345,0.235-0.663,0.307-0.86c0.055-0.153,0.088-0.252,0.104-0.29c0.005-0.016,0.005-0.022,0.005-0.022s0,0.005,0.005,0.022  c0.016,0.038,0.049,0.137,0.104,0.29c0.077,0.203,0.148,0.498,0.307,0.849c0.071,0.175,0.153,0.367,0.241,0.575  c0.11,0.203,0.214,0.416,0.329,0.641c0.12,0.225,0.268,0.449,0.411,0.685c0.148,0.235,0.329,0.465,0.498,0.706  c0.383,0.466,0.8,0.942,1.309,1.358c0.482,0.444,1.062,0.811,1.659,1.15c0.608,0.334,1.281,0.564,1.961,0.761  c0.345,0.077,0.701,0.153,1.002,0.186l0.235,0.038c0.071,0.016,0.208,0.011,0.307,0.016l0.575,0.027  c0.723-0.011,1.435-0.099,2.125-0.263c0.679-0.197,1.347-0.433,1.961-0.767c0.597-0.34,1.183-0.701,1.665-1.145  c0.509-0.422,0.926-0.898,1.303-1.358c0.022-0.027,0.038-0.055,0.06-0.082c0.153-0.219,0.312-0.422,0.444-0.624  c0.137-0.241,0.29-0.466,0.411-0.69c0.115-0.225,0.214-0.438,0.329-0.641c0.082-0.203,0.164-0.394,0.235-0.564  c0.153-0.345,0.23-0.663,0.307-0.86c0.055-0.153,0.088-0.252,0.104-0.29c0.005-0.016,0.005-0.022,0.005-0.022s0,0.005,0.005,0.022  c0.016,0.038,0.049,0.137,0.104,0.29c0.071,0.203,0.148,0.498,0.301,0.849c0.077,0.175,0.153,0.367,0.241,0.575  c0.115,0.203,0.214,0.416,0.329,0.641c0.12,0.225,0.274,0.449,0.411,0.685c0.148,0.235,0.334,0.465,0.504,0.706  c0.378,0.466,0.794,0.942,1.303,1.358c0.482,0.444,1.068,0.811,1.665,1.15c0.608,0.334,1.276,0.564,1.955,0.761  c0.351,0.077,0.706,0.153,1.008,0.186l0.235,0.038c0.066,0.016,0.208,0.011,0.307,0.016l0.575,0.027  c0.717-0.011,1.435-0.099,2.125-0.263c0.679-0.197,1.347-0.433,1.955-0.767c0.602-0.34,1.183-0.701,1.665-1.145  c0.509-0.422,0.926-0.898,1.309-1.358c0.17-0.246,0.351-0.476,0.498-0.706c0.142-0.241,0.29-0.466,0.411-0.69  c0.115-0.225,0.219-0.438,0.329-0.641c0.088-0.203,0.17-0.394,0.241-0.564c0.153-0.345,0.23-0.663,0.301-0.86  c0.071-0.203,0.11-0.312,0.11-0.312s0.027,0.115,0.082,0.323c0.027,0.214,0.148,0.504,0.153,0.915  C94.973,65.762,94.995,65.997,95,66.249z M36.134,25.088c-1.106-0.033-1.342,0.685-1.156,1.03  c8.85,16.418-2.683,27.782-10.082,32.979c0.06,0.077,0.115,0.153,0.17,0.23c0.378,0.466,0.794,0.942,1.303,1.358  c0.482,0.444,1.068,0.811,1.665,1.15c0.608,0.334,1.276,0.564,1.955,0.761c0.351,0.077,0.706,0.153,1.008,0.186l0.235,0.038  c0.066,0.016,0.208,0.011,0.307,0.016l0.575,0.027c0.717-0.011,1.435-0.099,2.125-0.263c0.679-0.197,1.347-0.433,1.955-0.767  c0.602-0.34,1.183-0.701,1.665-1.145c0.509-0.422,0.926-0.898,1.309-1.358c0.17-0.246,0.35-0.476,0.498-0.706  c0.142-0.241,0.29-0.466,0.411-0.69c0.115-0.225,0.219-0.438,0.329-0.641c0.088-0.203,0.17-0.394,0.241-0.564  c0.153-0.345,0.23-0.663,0.301-0.86c0.055-0.153,0.088-0.252,0.104-0.29c0.005-0.016,0.005-0.022,0.005-0.022  s0.055,0.159,0.11,0.312c0.077,0.203,0.153,0.498,0.307,0.849c0.071,0.175,0.153,0.367,0.241,0.575  c0.11,0.203,0.214,0.416,0.329,0.641c0.12,0.225,0.268,0.449,0.411,0.685c0.148,0.235,0.334,0.465,0.504,0.706  c0.378,0.466,0.794,0.942,1.303,1.358c0.482,0.444,1.068,0.811,1.665,1.15c0.608,0.334,1.276,0.564,1.955,0.761  c0.351,0.077,0.706,0.153,1.008,0.186l0.23,0.038c0.071,0.016,0.208,0.011,0.312,0.016l0.575,0.027  c0.717-0.011,1.429-0.099,2.125-0.263c0.679-0.197,1.347-0.433,1.955-0.767c0.597-0.34,1.183-0.701,1.665-1.145  c0.509-0.422,0.926-0.898,1.303-1.358c0.17-0.246,0.356-0.476,0.504-0.706c0.142-0.241,0.29-0.466,0.411-0.69  c0.115-0.225,0.219-0.438,0.329-0.641c0.088-0.203,0.164-0.394,0.235-0.564c0.159-0.345,0.394-1.112,0.411-1.15  c0.005-0.016,0.005-0.022,0.005-0.022s0,0.005,0.005,0.022c0.016,0.038,0.049,0.137,0.104,0.29c0.077,0.203,0.148,0.498,0.307,0.849  c0.071,0.175,0.153,0.367,0.241,0.575c0.11,0.203,0.214,0.416,0.329,0.641c0.12,0.225,0.268,0.449,0.411,0.685  c0.148,0.235,0.329,0.465,0.498,0.706c0.383,0.466,0.8,0.942,1.309,1.358c0.482,0.444,1.062,0.811,1.659,1.15  c0.608,0.334,1.281,0.564,1.961,0.761c0.345,0.077,0.701,0.153,1.002,0.186l0.235,0.038c0.071,0.016,0.208,0.011,0.307,0.016  l0.575,0.027c0.723-0.011,1.435-0.099,2.125-0.263c0.679-0.197,1.347-0.433,1.961-0.767c0.597-0.34,1.183-0.701,1.665-1.145  c0.509-0.422,0.926-0.898,1.303-1.358c0.022-0.027,0.038-0.055,0.06-0.082C73.439,28.297,43.708,25.34,36.134,25.088z"/>
</svg>