<svg xmlns="http://www.w3.org/2000/svg" xmlns:xlink="http://www.w3.org/1999/xlink" version="1.1" id="Calque_1" x="0px" y="0px" width="100px" height="100px" viewBox="0 0 100 100" enable-background="new 0 0 100 100" xml:space="preserve">
<g>
	<rect x="28.762" y="48.642" width="7.079" height="2.022"/>
	<rect x="28.764" y="44.599" width="7.077" height="3.033"/>
	<rect x="36.853" y="48.642" width="7.079" height="2.022"/>
	<rect x="36.854" y="44.599" width="7.078" height="3.033"/>
	<rect x="36.854" y="40.553" width="7.078" height="3.034"/>
	<rect x="44.943" y="48.642" width="7.079" height="2.022"/>
	<rect x="44.945" y="44.599" width="7.078" height="3.033"/>
	<rect x="44.945" y="40.553" width="7.078" height="3.034"/>
	<rect x="53.034" y="48.642" width="7.078" height="2.022"/>
	<rect x="53.034" y="44.599" width="7.078" height="3.033"/>
	<rect x="53.034" y="40.553" width="7.078" height="3.034"/>
	<rect x="61.123" y="48.642" width="7.078" height="2.022"/>
	<rect x="61.125" y="44.599" width="7.076" height="3.033"/>
	<rect x="61.125" y="40.553" width="7.076" height="3.034"/>
	<rect x="69.213" y="48.642" width="7.08" height="2.022"/>
	<rect x="69.214" y="44.599" width="7.079" height="3.033"/>
	<polygon points="95.503,35.126 95.503,33.474 86.404,33.474 86.954,35.126  "/>
	<polygon points="95.503,39.17 95.503,35.866 87.2,35.866 88.302,39.17  "/>
	<path d="M95.503,40.553v-0.642h-9.099v1.913h2.021c0.276,0,0.498,0.223,0.498,0.499c0,0.276-0.222,0.5-0.498,0.5h-2.021v1.023   h2.021c0.276,0,0.498,0.223,0.498,0.5c0,0.275-0.222,0.499-0.498,0.499h-2.021v1.023h2.021c0.276,0,0.498,0.223,0.498,0.5   c0,0.275-0.222,0.499-0.498,0.499h-2.021v1.777h9.099V40.553z M93.482,46.873h-1.012v-1.011h1.012V46.873z M93.482,44.851h-1.012   V43.84h1.012V44.851z M93.482,42.829h-1.012v-1.011h1.012V42.829z"/>
	<path d="M99.92,50.665c0-0.205-0.166-0.37-0.37-0.37h-1.87l-0.903-0.902c-0.067-0.069-0.163-0.108-0.261-0.108H84.381   c-0.098,0-0.193,0.039-0.262,0.108l-1.914,1.914H23.86l-0.903-0.903c-0.069-0.069-0.163-0.108-0.261-0.108h-1.869l-0.903-0.902   c-0.069-0.07-0.163-0.108-0.261-0.108c-5.983,0-19.054-1-19.186-1.01c-0.17-0.026-0.325,0.091-0.379,0.251   c-0.054,0.162,0.009,0.338,0.152,0.429c3.787,2.41,6.386,4.584,8.168,6.397H99.92v-0.639c0-0.001,0-0.002,0-0.003V50.665z    M6.01,50.665c-0.279,0-0.506-0.226-0.506-0.505c0-0.28,0.227-0.506,0.506-0.506c0.279,0,0.505,0.226,0.505,0.506   C6.516,50.439,6.289,50.665,6.01,50.665z"/>
	<path d="M98.169,57.744c0,0.204,0.164,0.369,0.37,0.369h1.011c0.204,0,0.37-0.165,0.37-0.369v-1.652h-1.751V57.744z"/>
	<path d="M12.22,60.85c0.035,0.174,0.186,0.297,0.363,0.297h74.831c6.15,0,8.266-2.043,8.352-2.129   c0.142-0.143,0.142-0.375,0.003-0.521c-0.013-0.013-0.308-0.331-0.19-0.809c0.087-0.346,0.45-0.925,1.659-1.596H9.119   C11.792,59.018,12.214,60.822,12.22,60.85z"/>
	<path d="M93.852,23.361c0-0.204-0.165-0.369-0.369-0.369c-0.206,0-0.37,0.165-0.37,0.369v9.101h0.739V23.361z"/>
</g>
</svg>